<?xml version="1.0" encoding="UTF-8"?>
<!DOCTYPE svg PUBLIC "-//W3C//DTD SVG 1.1//EN" "http://www.w3.org/Graphics/SVG/1.1/DTD/svg11.dtd">
<svg xmlns="http://www.w3.org/2000/svg" version="1.1" width="100px" height="100px" style="shape-rendering:geometricPrecision; text-rendering:geometricPrecision; image-rendering:optimizeQuality; fill-rule:evenodd; clip-rule:evenodd" xmlns:xlink="http://www.w3.org/1999/xlink">
<g><path style="opacity:0.913" fill="#ad83f8" d="M 17.5,11.5 C 38.8359,11.3334 60.1693,11.5 81.5,12C 84.3333,12.8333 86.1667,14.6667 87,17.5C 87.6667,38.8333 87.6667,60.1667 87,81.5C 86.1667,84.3333 84.3333,86.1667 81.5,87C 60.1667,87.6667 38.8333,87.6667 17.5,87C 14.6667,86.1667 12.8333,84.3333 12,81.5C 11.3333,60.1667 11.3333,38.8333 12,17.5C 13.0209,14.6499 14.8542,12.6499 17.5,11.5 Z"/></g>
<g><path style="opacity:1" fill="#180b41" d="M 18.5,18.5 C 39.1667,18.5 59.8333,18.5 80.5,18.5C 80.5,39.1667 80.5,59.8333 80.5,80.5C 59.8333,80.5 39.1667,80.5 18.5,80.5C 18.5,59.8333 18.5,39.1667 18.5,18.5 Z"/></g>
<g><path style="opacity:1" fill="#a980f3" d="M 36.5,34.5 C 38.7659,34.1412 40.5993,34.8078 42,36.5C 45.5448,45.2997 48.3781,54.2997 50.5,63.5C 46.2936,64.0508 43.9603,62.2174 43.5,58C 40.5,57.3333 37.5,57.3333 34.5,58C 33.1387,59.5843 32.472,61.4176 32.5,63.5C 30.396,63.7989 28.396,63.4656 26.5,62.5C 30.0392,53.2142 33.3725,43.8809 36.5,34.5 Z"/></g>
<g><path style="opacity:1" fill="#a87ff1" d="M 57.5,42.5 C 66.9502,40.95 71.2835,44.95 70.5,54.5C 66.5,54.5 62.5,54.5 58.5,54.5C 59.7543,59.9085 62.7543,60.9085 67.5,57.5C 68.4147,58.3279 69.0814,59.3279 69.5,60.5C 64.0361,66.0474 58.8694,65.7141 54,59.5C 51.1916,52.9165 52.3583,47.2499 57.5,42.5 Z"/></g>
<g><path style="opacity:1" fill="#24154f" d="M 38.5,42.5 C 40.2766,45.5046 41.2766,48.8379 41.5,52.5C 39.8333,52.5 38.1667,52.5 36.5,52.5C 36.5465,49.0314 37.2132,45.698 38.5,42.5 Z"/></g>
<g><path style="opacity:1" fill="#1d1047" d="M 59.5,46.5 C 62.9496,45.7564 64.6162,47.0897 64.5,50.5C 62.396,50.7989 60.396,50.4656 58.5,49.5C 59.1272,48.5832 59.4606,47.5832 59.5,46.5 Z"/></g>
</svg>
