<?xml version="1.0" encoding="UTF-8"?>
<!DOCTYPE svg PUBLIC "-//W3C//DTD SVG 1.1//EN" "http://www.w3.org/Graphics/SVG/1.1/DTD/svg11.dtd">
<svg xmlns="http://www.w3.org/2000/svg" version="1.1" width="100px" height="100px" style="shape-rendering:geometricPrecision; text-rendering:geometricPrecision; image-rendering:optimizeQuality; fill-rule:evenodd; clip-rule:evenodd" xmlns:xlink="http://www.w3.org/1999/xlink">
<g><path style="opacity:0.971" fill="#779a0d" d="M 26.5,-0.5 C 27.8333,-0.5 29.1667,-0.5 30.5,-0.5C 33.4295,8.03136 36.9295,16.3647 41,24.5C 41.977,26.74 42.477,29.0733 42.5,31.5C 36.3224,44.6772 30.3224,58.0106 24.5,71.5C 16.3501,72.4927 8.01676,72.8261 -0.5,72.5C -0.5,71.5 -0.5,70.5 -0.5,69.5C 8.48006,46.2372 17.4801,22.9038 26.5,-0.5 Z"/></g>
<g><path style="opacity:0.986" fill="#0058b8" d="M 30.5,-0.5 C 40.1667,-0.5 49.8333,-0.5 59.5,-0.5C 72.3212,31.7972 85.6545,63.7972 99.5,95.5C 99.5,96.1667 99.5,96.8333 99.5,97.5C 90.1429,97.8316 80.8096,97.4983 71.5,96.5C 68.1597,88.8041 64.8263,81.1375 61.5,73.5C 61.6716,72.5084 61.3382,71.8417 60.5,71.5C 55.0132,57.8656 49.0132,44.5322 42.5,31.5C 42.477,29.0733 41.977,26.74 41,24.5C 36.9295,16.3647 33.4295,8.03136 30.5,-0.5 Z"/></g>
<g><path style="opacity:0.959" fill="#01aead" d="M 24.5,71.5 C 36.5,71.5 48.5,71.5 60.5,71.5C 61.3382,71.8417 61.6716,72.5084 61.5,73.5C 50.3808,80.779 39.3808,88.279 28.5,96C 22.3235,99.4308 16.4902,98.9308 11,94.5C 7.39245,87.6074 3.55911,80.9407 -0.5,74.5C -0.5,73.8333 -0.5,73.1667 -0.5,72.5C 8.01676,72.8261 16.3501,72.4927 24.5,71.5 Z"/></g>
</svg>
