<?xml version="1.0" encoding="UTF-8"?>
<!DOCTYPE svg PUBLIC "-//W3C//DTD SVG 1.1//EN" "http://www.w3.org/Graphics/SVG/1.1/DTD/svg11.dtd">
<svg xmlns="http://www.w3.org/2000/svg" version="1.1" width="100px" height="100px" style="shape-rendering:geometricPrecision; text-rendering:geometricPrecision; image-rendering:optimizeQuality; fill-rule:evenodd; clip-rule:evenodd" xmlns:xlink="http://www.w3.org/1999/xlink">
<g><path style="opacity:0.938" fill="#ff6c00" d="M 49.5,11.5 C 51.6547,11.372 53.6547,11.872 55.5,13C 65.5,20.3333 75.5,27.6667 85.5,35C 94.4887,43.6403 97.6554,54.1403 95,66.5C 89.5078,80.7995 79.0078,87.7995 63.5,87.5C 44.0734,87.2332 32.9067,77.5666 30,58.5C 24.1667,63.6667 18.3333,68.8333 12.5,74C 4.79432,75.7959 2.12765,72.9625 4.5,65.5C 14.3142,56.7628 24.3142,48.2628 34.5,40C 29.1667,39.6667 23.8333,39.3333 18.5,39C 14.9651,36.1616 14.6318,32.9949 17.5,29.5C 31.4551,28.6836 45.4551,28.1836 59.5,28C 54.3471,25.0091 50.0138,21.1758 46.5,16.5C 47.0654,14.4908 48.0654,12.8241 49.5,11.5 Z M 58.5,37.5 C 71.4978,36.3173 79.4978,41.9839 82.5,54.5C 80.7752,65.6162 74.2752,71.2829 63,71.5C 52.0195,71.2638 45.5195,65.7638 43.5,55C 45.1159,46.2206 50.1159,40.3873 58.5,37.5 Z"/></g>
<g><path style="opacity:0.955" fill="#01569b" d="M 59.5,42.5 C 68.9382,41.5409 74.9382,45.5409 77.5,54.5C 75.026,64.4134 68.6926,68.2468 58.5,66C 50.6022,63.7097 47.7689,58.5431 50,50.5C 52.1608,46.4952 55.3275,43.8286 59.5,42.5 Z"/></g>
</svg>
