<?xml version="1.0" encoding="UTF-8"?>
<!DOCTYPE svg PUBLIC "-//W3C//DTD SVG 1.1//EN" "http://www.w3.org/Graphics/SVG/1.1/DTD/svg11.dtd">
<svg xmlns="http://www.w3.org/2000/svg" version="1.1" width="100px" height="100px" style="shape-rendering:geometricPrecision; text-rendering:geometricPrecision; image-rendering:optimizeQuality; fill-rule:evenodd; clip-rule:evenodd" xmlns:xlink="http://www.w3.org/1999/xlink">
<g><path style="opacity:0.982" fill="#0277bd" d="M 13.5,9.5 C 37.5,9.5 61.5,9.5 85.5,9.5C 83.1995,33.4725 81.1995,57.4725 79.5,81.5C 69.4616,83.9561 59.4616,86.6228 49.5,89.5C 39.5384,86.6228 29.5384,83.9561 19.5,81.5C 17.8005,57.4725 15.8005,33.4725 13.5,9.5 Z"/></g>
<g><path style="opacity:1" fill="#139ce5" d="M 49.5,72.5 C 54.9801,70.2292 60.6468,68.5625 66.5,67.5C 66.6307,54.4936 66.9641,41.4936 67.5,28.5C 68.0431,28.44 68.3764,28.1067 68.5,27.5C 62.2015,26.5037 55.8682,26.1703 49.5,26.5C 49.5,23.1667 49.5,19.8333 49.5,16.5C 58.8333,16.5 68.1667,16.5 77.5,16.5C 76.0834,36.1681 74.5834,55.8348 73,75.5C 65.4995,77.7515 57.9995,80.0848 50.5,82.5C 49.513,79.2317 49.1796,75.8984 49.5,72.5 Z"/></g>
<g><path style="opacity:1" fill="#ebedef" d="M 49.5,26.5 C 55.8682,26.1703 62.2015,26.5037 68.5,27.5C 68.3764,28.1067 68.0431,28.44 67.5,28.5C 61.69,27.5104 55.69,27.1771 49.5,27.5C 49.5,29.8333 49.5,32.1667 49.5,34.5C 43.5,34.5 37.5,34.5 31.5,34.5C 31.7373,33.209 31.404,32.209 30.5,31.5C 30.5,29.8333 30.5,28.1667 30.5,26.5C 36.8333,26.5 43.1667,26.5 49.5,26.5 Z"/></g>
<g><path style="opacity:1" fill="#fbfcfc" d="M 67.5,28.5 C 66.9641,41.4936 66.6307,54.4936 66.5,67.5C 60.6468,68.5625 54.9801,70.2292 49.5,72.5C 49.2641,69.3915 49.5975,66.3915 50.5,63.5C 53.0279,62.6011 55.5279,61.6011 58,60.5C 58.498,57.5184 58.6646,54.5184 58.5,51.5C 55.5,51.5 52.5,51.5 49.5,51.5C 46.5,51.5 43.5,51.5 40.5,51.5C 40.5,48.8333 40.5,46.1667 40.5,43.5C 46.8333,43.5 53.1667,43.5 59.5,43.5C 59.5,42.5 59.5,41.5 59.5,40.5C 59.5,38.8333 59.5,37.1667 59.5,35.5C 56.3752,34.5206 53.0419,34.1872 49.5,34.5C 49.5,32.1667 49.5,29.8333 49.5,27.5C 55.69,27.1771 61.69,27.5104 67.5,28.5 Z"/></g>
<g><path style="opacity:1" fill="#68afd8" d="M 30.5,31.5 C 31.404,32.209 31.7373,33.209 31.5,34.5C 37.5,34.5 43.5,34.5 49.5,34.5C 53.0419,34.1872 56.3752,34.5206 59.5,35.5C 56.1667,35.5 52.8333,35.5 49.5,35.5C 43.1667,35.5 36.8333,35.5 30.5,35.5C 30.5,34.1667 30.5,32.8333 30.5,31.5 Z"/></g>
<g><path style="opacity:1" fill="#059be5" d="M 49.5,35.5 C 52.8333,35.5 56.1667,35.5 59.5,35.5C 59.5,37.1667 59.5,38.8333 59.5,40.5C 56.5118,42.273 53.1785,42.9396 49.5,42.5C 49.5,40.1667 49.5,37.8333 49.5,35.5 Z"/></g>
<g><path style="opacity:1" fill="#4aa2d4" d="M 59.5,40.5 C 59.5,41.5 59.5,42.5 59.5,43.5C 53.1667,43.5 46.8333,43.5 40.5,43.5C 40.5,46.1667 40.5,48.8333 40.5,51.5C 39.5233,48.7131 39.19,45.7131 39.5,42.5C 42.8333,42.5 46.1667,42.5 49.5,42.5C 53.1785,42.9396 56.5118,42.273 59.5,40.5 Z"/></g>
<g><path style="opacity:1" fill="#109de5" d="M 49.5,51.5 C 52.5,51.5 55.5,51.5 58.5,51.5C 58.6646,54.5184 58.498,57.5184 58,60.5C 55.5279,61.6011 53.0279,62.6011 50.5,63.5C 50.1667,63.5 49.8333,63.5 49.5,63.5C 49.5,59.5 49.5,55.5 49.5,51.5 Z"/></g>
<g><path style="opacity:1" fill="#9ac2dc" d="M 32.5,56.5 C 35.2869,55.5233 38.2869,55.19 41.5,55.5C 41.5,57.5 41.5,59.5 41.5,61.5C 40.5489,60.0813 40.2155,58.4147 40.5,56.5C 37.8333,56.5 35.1667,56.5 32.5,56.5 Z"/></g>
<g><path style="opacity:1" fill="#e7eaec" d="M 32.5,56.5 C 35.1667,56.5 37.8333,56.5 40.5,56.5C 40.2155,58.4147 40.5489,60.0813 41.5,61.5C 44.1123,62.3705 46.779,63.0372 49.5,63.5C 49.8333,63.5 50.1667,63.5 50.5,63.5C 49.5975,66.3915 49.2641,69.3915 49.5,72.5C 43.8919,70.6306 38.2252,68.9639 32.5,67.5C 32.5,63.8333 32.5,60.1667 32.5,56.5 Z"/></g>
</svg>
