<?xml version="1.0" encoding="UTF-8"?>
<!DOCTYPE svg PUBLIC "-//W3C//DTD SVG 1.1//EN" "http://www.w3.org/Graphics/SVG/1.1/DTD/svg11.dtd">
<svg xmlns="http://www.w3.org/2000/svg" version="1.1" width="100px" height="100px" style="shape-rendering:geometricPrecision; text-rendering:geometricPrecision; image-rendering:optimizeQuality; fill-rule:evenodd; clip-rule:evenodd" xmlns:xlink="http://www.w3.org/1999/xlink">
<g><path style="opacity:0.962" fill="#e65100" d="M 13.5,9.5 C 37.5,9.5 61.5,9.5 85.5,9.5C 83.1995,33.4725 81.1995,57.4725 79.5,81.5C 69.4616,83.9561 59.4616,86.6228 49.5,89.5C 39.5384,86.6228 29.5384,83.9561 19.5,81.5C 17.8005,57.4725 15.8005,33.4725 13.5,9.5 Z"/></g>
<g><path style="opacity:1" fill="#fe6f08" d="M 49.5,72.5 C 55.0925,70.6364 60.7592,68.9698 66.5,67.5C 66.3018,59.4659 66.6351,51.4659 67.5,43.5C 61.69,42.5104 55.69,42.1771 49.5,42.5C 49.5,40.1667 49.5,37.8333 49.5,35.5C 46.1667,35.5 42.8333,35.5 39.5,35.5C 48.9856,34.5062 58.6522,34.1729 68.5,34.5C 68.5,31.8333 68.5,29.1667 68.5,26.5C 62.1667,26.5 55.8333,26.5 49.5,26.5C 49.5,23.1667 49.5,19.8333 49.5,16.5C 58.8333,16.5 68.1667,16.5 77.5,16.5C 76.1897,36.1771 74.6897,55.8438 73,75.5C 65.4995,77.7515 57.9995,80.0848 50.5,82.5C 49.513,79.2317 49.1796,75.8984 49.5,72.5 Z"/></g>
<g><path style="opacity:1" fill="#e65101" d="M 39.5,35.5 C 42.8333,35.5 46.1667,35.5 49.5,35.5C 49.5,37.8333 49.5,40.1667 49.5,42.5C 45.8215,42.9396 42.4882,42.273 39.5,40.5C 39.5,38.8333 39.5,37.1667 39.5,35.5 Z"/></g>
<g><path style="opacity:1" fill="#f88d43" d="M 39.5,40.5 C 42.4882,42.273 45.8215,42.9396 49.5,42.5C 55.69,42.1771 61.69,42.5104 67.5,43.5C 58.1667,43.5 48.8333,43.5 39.5,43.5C 39.5,42.5 39.5,41.5 39.5,40.5 Z"/></g>
<g><path style="opacity:1" fill="#f8f3f1" d="M 49.5,26.5 C 55.8333,26.5 62.1667,26.5 68.5,26.5C 68.5,29.1667 68.5,31.8333 68.5,34.5C 58.6522,34.1729 48.9856,34.5062 39.5,35.5C 39.5,37.1667 39.5,38.8333 39.5,40.5C 39.5,41.5 39.5,42.5 39.5,43.5C 48.8333,43.5 58.1667,43.5 67.5,43.5C 66.6351,51.4659 66.3018,59.4659 66.5,67.5C 60.7592,68.9698 55.0925,70.6364 49.5,72.5C 43.8919,70.6306 38.2252,68.9639 32.5,67.5C 32.5,63.5 32.5,59.5 32.5,55.5C 35.1667,55.5 37.8333,55.5 40.5,55.5C 40.2606,57.4672 40.5939,59.3005 41.5,61C 44.0964,62.1356 46.763,62.969 49.5,63.5C 52.4398,62.7979 55.2731,61.7979 58,60.5C 58.498,57.5184 58.6646,54.5184 58.5,51.5C 55.5,51.5 52.5,51.5 49.5,51.5C 43.5,51.5 37.5,51.5 31.5,51.5C 31.309,43.1597 30.9756,34.8263 30.5,26.5C 36.8333,26.5 43.1667,26.5 49.5,26.5 Z"/></g>
<g><path style="opacity:1" fill="#ff7009" d="M 49.5,51.5 C 52.5,51.5 55.5,51.5 58.5,51.5C 58.6646,54.5184 58.498,57.5184 58,60.5C 55.2731,61.7979 52.4398,62.7979 49.5,63.5C 49.5,59.5 49.5,55.5 49.5,51.5 Z"/></g>
</svg>
