<?xml version="1.0" encoding="UTF-8"?>
<!DOCTYPE svg PUBLIC "-//W3C//DTD SVG 1.1//EN" "http://www.w3.org/Graphics/SVG/1.1/DTD/svg11.dtd">
<svg xmlns="http://www.w3.org/2000/svg" version="1.1" width="100px" height="100px" style="shape-rendering:geometricPrecision; text-rendering:geometricPrecision; image-rendering:optimizeQuality; fill-rule:evenodd; clip-rule:evenodd" xmlns:xlink="http://www.w3.org/1999/xlink">
<g><path style="opacity:1" fill="#dd6b00" d="M 3.5,-0.5 C 18.8333,-0.5 34.1667,-0.5 49.5,-0.5C 49.5,0.833333 49.5,2.16667 49.5,3.5C 34.9903,3.17075 20.6569,3.50408 6.5,4.5C 5.54163,4.9528 4.7083,5.61947 4,6.5C 3.33333,35.1667 3.33333,63.8333 4,92.5C 4.7083,93.3805 5.54163,94.0472 6.5,94.5C 20.6569,95.4959 34.9903,95.8293 49.5,95.5C 49.5,96.8333 49.5,98.1667 49.5,99.5C 34.1667,99.5 18.8333,99.5 3.5,99.5C 2.5,97.8333 1.16667,96.5 -0.5,95.5C -0.5,64.8333 -0.5,34.1667 -0.5,3.5C 1.16667,2.5 2.5,1.16667 3.5,-0.5 Z"/></g>
<g><path style="opacity:1" fill="#fc7a00" d="M 49.5,-0.5 C 64.8333,-0.5 80.1667,-0.5 95.5,-0.5C 96.5,1.16667 97.8333,2.5 99.5,3.5C 99.5,34.1667 99.5,64.8333 99.5,95.5C 97.8333,96.5 96.5,97.8333 95.5,99.5C 80.1667,99.5 64.8333,99.5 49.5,99.5C 49.5,98.1667 49.5,96.8333 49.5,95.5C 64.2153,95.8167 78.8819,95.4833 93.5,94.5C 94.1924,93.9747 94.6924,93.3081 95,92.5C 95.8249,63.4578 95.6582,34.4578 94.5,5.5C 93.9747,4.80762 93.3081,4.30762 92.5,4C 78.1705,3.50009 63.8372,3.33342 49.5,3.5C 49.5,2.16667 49.5,0.833333 49.5,-0.5 Z"/></g>
<g><path style="opacity:1" fill="#271200" d="M 6.5,4.5 C 20.8333,4.5 35.1667,4.5 49.5,4.5C 49.8269,14.015 49.4936,23.3483 48.5,32.5C 47.8007,28.9035 46.8007,25.4035 45.5,22C 42.1832,21.5017 38.8499,21.335 35.5,21.5C 33.8168,30.2332 31.8168,38.8999 29.5,47.5C 26.9278,53.8926 24.9278,60.5593 23.5,67.5C 26.1667,67.5 28.8333,67.5 31.5,67.5C 32.085,63.4088 33.085,59.4088 34.5,55.5C 38.7828,54.5078 43.1161,54.1744 47.5,54.5C 48.1667,57.8333 48.8333,61.1667 49.5,64.5C 49.5,74.5 49.5,84.5 49.5,94.5C 35.1667,94.5 20.8333,94.5 6.5,94.5C 5.54163,94.0472 4.7083,93.3805 4,92.5C 3.33333,63.8333 3.33333,35.1667 4,6.5C 4.7083,5.61947 5.54163,4.9528 6.5,4.5 Z"/></g>
<g><path style="opacity:1" fill="#443120" d="M 6.5,4.5 C 20.6569,3.50408 34.9903,3.17075 49.5,3.5C 63.8372,3.33342 78.1705,3.50009 92.5,4C 93.3081,4.30762 93.9747,4.80762 94.5,5.5C 95.6582,34.4578 95.8249,63.4578 95,92.5C 94.6924,93.3081 94.1924,93.9747 93.5,94.5C 78.8819,95.4833 64.2153,95.8167 49.5,95.5C 34.9903,95.8293 20.6569,95.4959 6.5,94.5C 20.8333,94.5 35.1667,94.5 49.5,94.5C 49.5,84.5 49.5,74.5 49.5,64.5C 50.404,65.209 50.7373,66.209 50.5,67.5C 53.1667,67.5 55.8333,67.5 58.5,67.5C 57.6106,61.1808 55.9439,55.1808 53.5,49.5C 52.296,43.6814 50.6293,38.0147 48.5,32.5C 49.4936,23.3483 49.8269,14.015 49.5,4.5C 35.1667,4.5 20.8333,4.5 6.5,4.5 Z"/></g>
<g><path style="opacity:1" fill="#ec7404" d="M 66.5,20.5 C 71.4585,19.6278 73.6252,21.6278 73,26.5C 70.7175,30.0406 68.0509,30.3739 65,27.5C 64.1668,24.829 64.6668,22.4957 66.5,20.5 Z"/></g>
<g><path style="opacity:1" fill="#f27500" d="M 48.5,32.5 C 50.6293,38.0147 52.296,43.6814 53.5,49.5C 45.0968,50.1335 37.0968,49.4668 29.5,47.5C 31.8168,38.8999 33.8168,30.2332 35.5,21.5C 38.8499,21.335 42.1832,21.5017 45.5,22C 46.8007,25.4035 47.8007,28.9035 48.5,32.5 Z"/></g>
<g><path style="opacity:1" fill="#311701" d="M 40.5,29.5 C 42.7673,35.2245 44.434,41.2245 45.5,47.5C 42.5,47.5 39.5,47.5 36.5,47.5C 37.5186,41.426 38.8519,35.426 40.5,29.5 Z"/></g>
<g><path style="opacity:1" fill="#fb7a00" d="M 65.5,33.5 C 67.8333,33.5 70.1667,33.5 72.5,33.5C 72.5,38.8333 72.5,44.1667 72.5,49.5C 70.1667,49.5 67.8333,49.5 65.5,49.5C 65.5,44.1667 65.5,38.8333 65.5,33.5 Z"/></g>
<g><path style="opacity:1" fill="#d96900" d="M 29.5,47.5 C 37.0968,49.4668 45.0968,50.1335 53.5,49.5C 55.9439,55.1808 57.6106,61.1808 58.5,67.5C 55.8333,67.5 53.1667,67.5 50.5,67.5C 50.7373,66.209 50.404,65.209 49.5,64.5C 48.8333,61.1667 48.1667,57.8333 47.5,54.5C 43.1161,54.1744 38.7828,54.5078 34.5,55.5C 33.085,59.4088 32.085,63.4088 31.5,67.5C 28.8333,67.5 26.1667,67.5 23.5,67.5C 24.9278,60.5593 26.9278,53.8926 29.5,47.5 Z"/></g>
<g><path style="opacity:1" fill="#d46803" d="M 65.5,33.5 C 65.5,38.8333 65.5,44.1667 65.5,49.5C 67.8333,49.5 70.1667,49.5 72.5,49.5C 72.5,55.5 72.5,61.5 72.5,67.5C 69.8333,67.5 67.1667,67.5 64.5,67.5C 64.1719,55.9877 64.5052,44.6544 65.5,33.5 Z"/></g>
</svg>
