<?xml version="1.0" encoding="UTF-8"?>
<!DOCTYPE svg PUBLIC "-//W3C//DTD SVG 1.1//EN" "http://www.w3.org/Graphics/SVG/1.1/DTD/svg11.dtd">
<svg xmlns="http://www.w3.org/2000/svg" version="1.1" width="100px" height="100px" style="shape-rendering:geometricPrecision; text-rendering:geometricPrecision; image-rendering:optimizeQuality; fill-rule:evenodd; clip-rule:evenodd" xmlns:xlink="http://www.w3.org/1999/xlink">
<g><path style="opacity:0.969" fill="#fdd400" d="M 11.5,11.5 C 36.8333,11.5 62.1667,11.5 87.5,11.5C 87.5,36.8333 87.5,62.1667 87.5,87.5C 62.1667,87.5 36.8333,87.5 11.5,87.5C 11.5,62.1667 11.5,36.8333 11.5,11.5 Z"/></g>
<g><path style="opacity:1" fill="#0c0901" d="M 45.5,45.5 C 47.8333,45.5 50.1667,45.5 52.5,45.5C 52.6664,54.1731 52.4998,62.8397 52,71.5C 48.7082,78.2659 43.5415,80.0992 36.5,77C 34.5,75.6667 32.8333,74 31.5,72C 34.0178,68.3493 36.6845,68.016 39.5,71C 41.4406,71.7429 43.2739,71.5762 45,70.5C 45.4997,62.1733 45.6664,53.84 45.5,45.5 Z"/></g>
<g><path style="opacity:1" fill="#0c0901" d="M 62.5,45.5 C 68.263,44.4481 72.9297,46.1148 76.5,50.5C 74.3424,52.9652 72.0091,53.4652 69.5,52C 63.8042,50.6771 62.4708,52.3438 65.5,57C 70.7891,58.3061 74.9557,61.1395 78,65.5C 78.6599,76.488 73.4933,80.6547 62.5,78C 59.8207,76.654 57.8207,74.654 56.5,72C 59.1273,67.3608 61.7939,67.3608 64.5,72C 71.1798,73.6698 72.8465,71.6698 69.5,66C 60.9458,64.1368 57.1125,58.9701 58,50.5C 59.3657,48.6383 60.8657,46.9717 62.5,45.5 Z"/></g>
</svg>
