<?xml version="1.0" encoding="UTF-8"?>
<!DOCTYPE svg PUBLIC "-//W3C//DTD SVG 1.1//EN" "http://www.w3.org/Graphics/SVG/1.1/DTD/svg11.dtd">
<svg xmlns="http://www.w3.org/2000/svg" version="1.1" width="100px" height="100px" style="shape-rendering:geometricPrecision; text-rendering:geometricPrecision; image-rendering:optimizeQuality; fill-rule:evenodd; clip-rule:evenodd" xmlns:xlink="http://www.w3.org/1999/xlink">
<g><path style="opacity:0.972" fill="#03a3ec" d="M 17.5,11.5 C 38.8359,11.3334 60.1693,11.5 81.5,12C 84.3333,12.8333 86.1667,14.6667 87,17.5C 87.6667,38.8333 87.6667,60.1667 87,81.5C 86.1667,84.3333 84.3333,86.1667 81.5,87C 60.1667,87.6667 38.8333,87.6667 17.5,87C 14.6667,86.1667 12.8333,84.3333 12,81.5C 11.3333,60.1667 11.3333,38.8333 12,17.5C 13.0209,14.6499 14.8542,12.6499 17.5,11.5 Z"/></g>
<g><path style="opacity:1" fill="#020f16" d="M 18.5,18.5 C 39.1667,18.5 59.8333,18.5 80.5,18.5C 80.5,39.1667 80.5,59.8333 80.5,80.5C 59.8333,80.5 39.1667,80.5 18.5,80.5C 18.5,59.8333 18.5,39.1667 18.5,18.5 Z"/></g>
<g><path style="opacity:1" fill="#02577e" d="M 31.5,34.5 C 31.5,44.1667 31.5,53.8333 31.5,63.5C 33.1667,63.5 34.8333,63.5 36.5,63.5C 36.1872,59.9581 36.5206,56.6248 37.5,53.5C 37.5,57.1667 37.5,60.8333 37.5,64.5C 35.1667,64.5 32.8333,64.5 30.5,64.5C 30.1726,54.3194 30.506,44.3194 31.5,34.5 Z"/></g>
<g><path style="opacity:1" fill="#03a3ec" d="M 31.5,34.5 C 36.1785,34.3342 40.8452,34.5008 45.5,35C 50.711,39.1635 51.8777,44.3302 49,50.5C 45.6727,53.1539 41.8394,54.1539 37.5,53.5C 36.5206,56.6248 36.1872,59.9581 36.5,63.5C 34.8333,63.5 33.1667,63.5 31.5,63.5C 31.5,53.8333 31.5,44.1667 31.5,34.5 Z"/></g>
<g><path style="opacity:1" fill="#041119" d="M 37.5,39.5 C 43.9889,39.1563 45.9889,41.9896 43.5,48C 41.5273,48.4955 39.5273,48.6621 37.5,48.5C 37.5,45.5 37.5,42.5 37.5,39.5 Z"/></g>
<g><path style="opacity:1" fill="#03a0e7" d="M 58.5,41.5 C 61.7239,41.2035 64.7239,41.8702 67.5,43.5C 68.9501,44.8498 69.6168,46.5165 69.5,48.5C 66.0678,48.2427 62.7345,47.576 59.5,46.5C 59.281,47.675 59.6143,48.675 60.5,49.5C 63.5802,50.7885 66.4136,52.4552 69,54.5C 70.3655,62.7616 66.8655,65.9282 58.5,64C 55.9673,62.9667 54.3006,61.1334 53.5,58.5C 54.5,58.1667 55.5,57.8333 56.5,57.5C 58.6936,57.9537 60.527,58.9537 62,60.5C 63.2798,60.3865 64.1131,59.7199 64.5,58.5C 61.3456,56.2606 58.179,53.9272 55,51.5C 53.5812,47.0823 54.7478,43.7489 58.5,41.5 Z"/></g>
</svg>
