<?xml version="1.0" encoding="UTF-8"?>
<!DOCTYPE svg PUBLIC "-//W3C//DTD SVG 1.1//EN" "http://www.w3.org/Graphics/SVG/1.1/DTD/svg11.dtd">
<svg xmlns="http://www.w3.org/2000/svg" version="1.1" width="100px" height="100px" style="shape-rendering:geometricPrecision; text-rendering:geometricPrecision; image-rendering:optimizeQuality; fill-rule:evenodd; clip-rule:evenodd" xmlns:xlink="http://www.w3.org/1999/xlink">
<g><path style="opacity:0.935" fill="#d83ef3" d="M 17.5,11.5 C 38.8359,11.3334 60.1693,11.5 81.5,12C 84.3333,12.8333 86.1667,14.6667 87,17.5C 87.6667,38.8333 87.6667,60.1667 87,81.5C 86.1667,84.3333 84.3333,86.1667 81.5,87C 60.1667,87.6667 38.8333,87.6667 17.5,87C 14.6667,86.1667 12.8333,84.3333 12,81.5C 11.3333,60.1667 11.3333,38.8333 12,17.5C 13.0209,14.6499 14.8542,12.6499 17.5,11.5 Z"/></g>
<g><path style="opacity:1" fill="#030f16" d="M 18.5,18.5 C 39.1667,18.5 59.8333,18.5 80.5,18.5C 80.5,39.1667 80.5,59.8333 80.5,80.5C 59.8333,80.5 39.1667,80.5 18.5,80.5C 18.5,59.8333 18.5,39.1667 18.5,18.5 Z"/></g>
<g><path style="opacity:1" fill="#912faa" d="M 33.5,34.5 C 33.5,44.1667 33.5,53.8333 33.5,63.5C 35.1667,63.5 36.8333,63.5 38.5,63.5C 38.1872,59.9581 38.5206,56.6248 39.5,53.5C 39.5,57.1667 39.5,60.8333 39.5,64.5C 37.1667,64.5 34.8333,64.5 32.5,64.5C 32.1726,54.3194 32.506,44.3194 33.5,34.5 Z"/></g>
<g><path style="opacity:1" fill="#d83ef3" d="M 33.5,34.5 C 38.1785,34.3342 42.8452,34.5008 47.5,35C 52.71,39.1195 53.8767,44.2862 51,50.5C 47.6727,53.1539 43.8394,54.1539 39.5,53.5C 38.5206,56.6248 38.1872,59.9581 38.5,63.5C 36.8333,63.5 35.1667,63.5 33.5,63.5C 33.5,53.8333 33.5,44.1667 33.5,34.5 Z"/></g>
<g><path style="opacity:1" fill="#060f18" d="M 39.5,39.5 C 45.9889,39.1563 47.9889,41.9896 45.5,48C 43.5273,48.4955 41.5273,48.6621 39.5,48.5C 39.5,45.5 39.5,42.5 39.5,39.5 Z"/></g>
<g><path style="opacity:1" fill="#8a2da2" d="M 63.5,42.5 C 61.8333,42.5 60.1667,42.5 58.5,42.5C 58.5,49.5 58.5,56.5 58.5,63.5C 60.1667,63.5 61.8333,63.5 63.5,63.5C 61.7354,64.4614 59.7354,64.7947 57.5,64.5C 57.5,56.8333 57.5,49.1667 57.5,41.5C 59.7354,41.2053 61.7354,41.5386 63.5,42.5 Z"/></g>
<g><path style="opacity:1" fill="#de3ff9" d="M 63.5,63.5 C 61.8333,63.5 60.1667,63.5 58.5,63.5C 58.5,56.5 58.5,49.5 58.5,42.5C 60.1667,42.5 61.8333,42.5 63.5,42.5C 63.4346,42.9382 63.6012,43.2716 64,43.5C 65.1096,41.9632 66.6096,41.2965 68.5,41.5C 68.5,43.5 68.5,45.5 68.5,47.5C 66.8561,47.2865 65.3561,47.6198 64,48.5C 63.5007,53.4889 63.3341,58.4889 63.5,63.5 Z"/></g>
</svg>
