<?xml version="1.0" encoding="UTF-8"?>
<!DOCTYPE svg PUBLIC "-//W3C//DTD SVG 1.1//EN" "http://www.w3.org/Graphics/SVG/1.1/DTD/svg11.dtd">
<svg xmlns="http://www.w3.org/2000/svg" version="1.1" width="100px" height="100px" style="shape-rendering:geometricPrecision; text-rendering:geometricPrecision; image-rendering:optimizeQuality; fill-rule:evenodd; clip-rule:evenodd" xmlns:xlink="http://www.w3.org/1999/xlink">
<g><path style="opacity:0.87" fill="#80ddea" d="M 26.5,6.5 C 35.2311,6.02881 42.8977,8.69548 49.5,14.5C 71.8923,-0.549796 82.0589,5.4502 80,32.5C 87.0799,34.5922 92.7466,38.5922 97,44.5C 99.1377,52.3512 96.6377,58.1845 89.5,62C 86.3785,63.6446 83.2118,65.1446 80,66.5C 82.2827,93.7247 72.116,99.7247 49.5,84.5C 26.9571,99.4785 16.7904,93.4785 19,66.5C 11.9201,64.4078 6.25342,60.4078 2,54.5C -0.137708,46.6488 2.36229,40.8155 9.5,37C 12.6215,35.3554 15.7882,33.8554 19,32.5C 17.8,25.3538 18.4666,18.3538 21,11.5C 22.7297,9.59809 24.563,7.93142 26.5,6.5 Z M 28.5,11.5 C 35.112,11.805 40.7787,14.305 45.5,19C 42.8333,22 40.1667,25 37.5,28C 33.3039,29.4775 28.9705,30.3108 24.5,30.5C 24.3342,25.8215 24.5008,21.1548 25,16.5C 25.6972,14.4156 26.8639,12.7489 28.5,11.5 Z M 64.5,11.5 C 69.1813,10.4564 72.348,12.1231 74,16.5C 74.4992,21.1548 74.6658,25.8215 74.5,30.5C 70.0295,30.3108 65.6961,29.4775 61.5,28C 58.8333,25 56.1667,22 53.5,19C 56.8861,15.9825 60.5527,13.4825 64.5,11.5 Z M 48.5,23.5 C 50.8863,24.3733 52.8863,25.8733 54.5,28C 51.1667,28.6667 47.8333,28.6667 44.5,28C 46.0414,26.6288 47.3747,25.1288 48.5,23.5 Z M 40.5,33.5 C 46.5092,33.3338 52.5092,33.5005 58.5,34C 62.1311,38.7571 65.1311,43.9238 67.5,49.5C 65.1311,55.0762 62.1311,60.2429 58.5,65C 52.5,65.6667 46.5,65.6667 40.5,65C 36.8689,60.2429 33.8689,55.0762 31.5,49.5C 34.0054,43.8155 37.0054,38.4822 40.5,33.5 Z M 30.5,34.5 C 31.552,34.3505 32.552,34.5172 33.5,35C 31.6227,37.2513 30.1227,39.7513 29,42.5C 27.4766,40.4308 26.6432,38.0974 26.5,35.5C 28.099,35.7678 29.4324,35.4345 30.5,34.5 Z M 65.5,35.5 C 67.6257,34.8968 69.9591,34.8968 72.5,35.5C 72.3568,38.0974 71.5234,40.4308 70,42.5C 68.9741,39.7613 67.4741,37.428 65.5,35.5 Z M 19.5,37.5 C 22.0346,41.0181 24.0346,45.0181 25.5,49.5C 23.8309,53.5097 22.1642,57.5097 20.5,61.5C 2.23715,53.9819 1.90381,45.9819 19.5,37.5 Z M 77.5,37.5 C 97.0559,44.8131 97.3892,52.8131 78.5,61.5C 76.8358,57.5097 75.1691,53.5097 73.5,49.5C 75.4138,45.6772 76.7471,41.6772 77.5,37.5 Z M 28.5,56.5 C 30.0192,59.0205 31.6859,61.5205 33.5,64C 31.2028,64.0178 28.8695,63.8511 26.5,63.5C 26.767,61.0347 27.4336,58.7014 28.5,56.5 Z M 69.5,56.5 C 71.4484,58.3204 72.4484,60.6538 72.5,63.5C 70.1305,63.8511 67.7972,64.0178 65.5,64C 67.495,61.8428 68.8283,59.3428 69.5,56.5 Z M 24.5,68.5 C 28.9705,68.6892 33.3039,69.5225 37.5,71C 40.1667,74 42.8333,77 45.5,80C 29.4295,92.9636 22.4295,89.1303 24.5,68.5 Z M 69.5,68.5 C 71.1667,68.5 72.8333,68.5 74.5,68.5C 76.5705,89.1303 69.5705,92.9636 53.5,80C 56.1667,77 58.8333,74 61.5,71C 64.2507,70.0572 66.9174,69.2239 69.5,68.5 Z M 44.5,71.5 C 47.6399,70.3592 50.9733,70.1925 54.5,71C 52.9825,72.6851 51.3159,74.1851 49.5,75.5C 47.8144,74.1431 46.1477,72.8098 44.5,71.5 Z"/></g>
<g><path style="opacity:0.92" fill="#7fdeea" d="M 46.5,40.5 C 54.9863,40.1514 58.8197,44.1514 58,52.5C 55.6471,57.4264 51.8138,59.2598 46.5,58C 38.5548,52.1697 38.5548,46.3363 46.5,40.5 Z"/></g>
</svg>
