<?xml version="1.0" encoding="UTF-8"?>
<!DOCTYPE svg PUBLIC "-//W3C//DTD SVG 1.1//EN" "http://www.w3.org/Graphics/SVG/1.1/DTD/svg11.dtd">
<svg xmlns="http://www.w3.org/2000/svg" version="1.1" width="100px" height="100px" style="shape-rendering:geometricPrecision; text-rendering:geometricPrecision; image-rendering:optimizeQuality; fill-rule:evenodd; clip-rule:evenodd" xmlns:xlink="http://www.w3.org/1999/xlink">
<g><path style="opacity:0.944" fill="#00acc1" d="M 99.5,29.5 C 99.5,30.8333 99.5,32.1667 99.5,33.5C 92.7235,47.9055 81.3901,53.0722 65.5,49C 63.7536,48.5291 62.087,47.8624 60.5,47C 54.5422,42.711 48.8756,38.0443 43.5,33C 35.876,31.0637 29.7093,33.2304 25,39.5C 25.7575,29.0699 31.2575,22.5699 41.5,20C 51.8492,17.8085 61.1826,19.8085 69.5,26C 72.8675,29.7026 76.5342,33.036 80.5,36C 88.2334,37.7947 94.5667,35.628 99.5,29.5 Z"/></g>
<g><path style="opacity:0.944" fill="#00acc1" d="M -0.5,69.5 C -0.5,68.1667 -0.5,66.8333 -0.5,65.5C 6.27653,51.0945 17.6099,45.9278 33.5,50C 35.2464,50.4709 36.913,51.1376 38.5,52C 44.4578,56.289 50.1244,60.9557 55.5,66C 63.124,67.9363 69.2907,65.7696 74,59.5C 73.0883,69.7951 67.5883,76.2951 57.5,79C 47.1738,81.1193 37.8405,79.1193 29.5,73C 26.1325,69.2974 22.4658,65.964 18.5,63C 10.7666,61.2053 4.43326,63.372 -0.5,69.5 Z"/></g>
</svg>
